<?xml version="1.0" encoding="UTF-8" standalone="no"?>
<!-- Created with Inkscape (http://www.inkscape.org/) -->

<svg
   width="210mm"
   height="81.372643mm"
   viewBox="0 0 210 81.372643"
   version="1.1"
   id="svg1"
   inkscape:version="1.4.2 (ebf0e940d0, 2025-05-08)"
   sodipodi:docname="cacua.svg"
   inkscape:export-filename="cacua.pdf"
   inkscape:export-xdpi="96"
   inkscape:export-ydpi="96"
   xmlns:inkscape="http://www.inkscape.org/namespaces/inkscape"
   xmlns:sodipodi="http://sodipodi.sourceforge.net/DTD/sodipodi-0.dtd"
   xmlns="http://www.w3.org/2000/svg"
   xmlns:svg="http://www.w3.org/2000/svg">
  <sodipodi:namedview
     id="namedview1"
     pagecolor="#ffffff"
     bordercolor="#000000"
     borderopacity="0.25"
     inkscape:showpageshadow="2"
     inkscape:pageopacity="0.0"
     inkscape:pagecheckerboard="true"
     inkscape:deskcolor="#d1d1d1"
     inkscape:document-units="mm"
     inkscape:zoom="0.97993828"
     inkscape:cx="642.89764"
     inkscape:cy="351.04252"
     inkscape:window-width="2546"
     inkscape:window-height="1373"
     inkscape:window-x="0"
     inkscape:window-y="0"
     inkscape:window-maximized="1"
     inkscape:current-layer="layer1" />
  <defs
     id="defs1">
    <clipPath
       clipPathUnits="userSpaceOnUse"
       id="clipPath43">
      <path
         d="m 132.02,307.86 h 351.75 v 136.5 H 132.02 Z"
         transform="matrix(1.3333333,0,0,-1.3333333,0,1122.5333)"
         clip-rule="evenodd"
         id="path43" />
    </clipPath>
    <clipPath
       clipPathUnits="userSpaceOnUse"
       id="clipPath33">
      <path
         d="M 0,0 H 297.69 V 115.6 H 0 Z"
         transform="translate(-2.1158061e-6)"
         id="path33" />
    </clipPath>
    <clipPath
       clipPathUnits="userSpaceOnUse"
       id="clipPath34">
      <path
         d="M 0,0 H 297.69 V 115.6 H 0 Z"
         transform="translate(-2.1158061e-6)"
         id="path34" />
    </clipPath>
    <clipPath
       clipPathUnits="userSpaceOnUse"
       id="clipPath35">
      <path
         d="M 0,0 H 297.69 V 115.6 H 0 Z"
         transform="translate(-2.1158061e-6)"
         id="path35" />
    </clipPath>
    <clipPath
       clipPathUnits="userSpaceOnUse"
       id="clipPath36">
      <path
         d="M 0,0 H 297.69 V 115.6 H 0 Z"
         transform="translate(-2.1158061e-6)"
         id="path36" />
    </clipPath>
    <clipPath
       clipPathUnits="userSpaceOnUse"
       id="clipPath37">
      <path
         d="M 0,0 H 297.69 V 115.6 H 0 Z"
         transform="translate(-2.1158061e-6)"
         id="path37" />
    </clipPath>
  </defs>
  <g
     inkscape:label="Layer 1"
     inkscape:groupmode="layer"
     id="layer1"
     transform="translate(-1.7835616e-6,-1.7650508e-5)">
    <g
       id="g42"
       clip-path="url(#clipPath43)"
       transform="matrix(0.44844797,0,0,0.44844797,-79.081695,-237.80976)"
       style="fill:#ffffff;fill-opacity:1">
      <path
         d="M 73.323,115.38 C 62.083,114.67 46.55,106.47 32.47,93.807 29.217,90.887 24.39,85.98 21.31,82.46 19.243,80.1 15.59,75.5 14.163,73.46 8.75,65.7 5.35,59.447 2.8567,52.647 1.63,49.313 1.1634,47.433 0.57671,43.527 0.21671,41.167 0.083373,35.713 0.32337,33.287 1.0167,26.153 3.83,20.033 8.5634,15.3 14.763,9.1 23.177,5.5799 34.923,4.2999 c 2.134,-0.2266 17.574,-0.2266 21.867,0 17.493,0.9467 30.507,2.8267 52.2,7.5471 2.16,0.466 3.95,0.84 3.96,0.826 0.01,0 0.09,-2.7464 0.17,-6.0797 0.08,-3.3334 0.18,-6.14668 0.2,-6.22668 0.04,-0.13334 0.79,-0.17334 3.12,-0.17334 h 3.07 l 0.07,0.70667 c 0.04,0.37335 0.26,3.54665 0.49,7.02665 0.23,3.4804 0.43,6.3464 0.45,6.3734 0.07,0.067 1.98,0.44 5.54,1.093 4.36,0.787 5.73,0.987 5.85,0.854 0.05,-0.067 0.29,-1.587 0.53,-3.387 0.52,-3.9467 1.62,-12.42671 1.62,-12.56005 0,-0.06667 1.32,-0.10667 2.94,-0.10667 h 2.95 l -0.11,5.64002 c -0.06,3.0933 -0.12,6.9737 -0.12,8.6267 v 3 l 4.27,0.56 c 16.68,2.187 25.85,2.8 39.2,2.667 18.81,-0.214 29.07,-1.254 40.53,-4.107 8.31,-2.08 18.43,-5.653 29.2,-10.32 1.47,-0.6401 3.15,-1.3734 3.75,-1.6267 l 1.08,-0.4667 1.85,0.6667 c 6.18,2.2133 10.54,2.8133 20.2,2.8267 2.11,0 4.44,0.0666 5.2,0.1333 2.12,0.2 4.8,0.76 6.72,1.4 1.92,0.64 4.76,1.9067 4.7,2.1067 -0.08,0.253 -6.3,2.747 -10.76,4.333 -15.64,5.52 -33.06,8.867 -55,10.547 -9.68,0.747 -18.47,1.147 -38.74,1.76 -16.06,0.48 -27.49,0.227 -41.73,-0.96 -2.92,-0.24 -8.47,-0.787 -10.16,-1 l -0.64,-0.093 v 0.853 c -0.01,0.467 -0.07,2.747 -0.15,5.053 -0.06,2.307 -0.17,10.92 -0.24,19.134 l -0.12,14.933 0.38,1.493 c 0.97,3.867 2.62,6.254 6.8,9.827 0.84,0.72 2.2,1.933 3,2.68 0.81,0.747 2.4,2.16 3.53,3.147 4.2,3.64 5.95,5.293 13.33,12.6 2.83,2.786 5.58,5.493 6.12,6.013 0.62,0.59 0.96,1.01 0.92,1.13 -0.04,0.1 -1.32,0.74 -2.84,1.42 l -2.76,1.22 -0.8,-0.64 c -0.44,-0.34 -0.93,-0.72 -1.09,-0.82 -0.16,-0.11 -0.97,-0.72 -1.81,-1.35 -0.84,-0.63 -2.4,-1.75 -3.47,-2.51 -1.07,-0.743 -2.76,-1.943 -3.76,-2.65 -1.01,-0.707 -2.36,-1.653 -3,-2.093 -0.64,-0.44 -2.48,-1.72 -4.08,-2.84 -3.61,-2.534 -5.25,-3.547 -7.56,-4.694 -7.33,-3.666 -13.53,-3.813 -19.19,-0.466 -3.96,2.333 -7.72,6.506 -10.94,12.12 -1.16,2.043 -2.07,3.933 -1.92,4.063 0.06,0.06 0.54,0.27 1.05,0.47 1.75,0.68 4.35,2.28 6.67,4.11 2.53,2 2.38,1.85 2.7,2.93 0.16,0.53 0.39,1.25 0.48,1.6 l 0.2,0.61 -0.36,-0.04 c -0.2,-0.02 -1.56,-0.34 -3.02,-0.7 -7.27,-1.82 -10.78,-2.39 -15.27,-2.52 -4.6,-0.12 -8.213,0.45 -11.733,1.86 -1.094,0.44 -1.507,0.55 -1.56,0.43 -0.094,-0.27 1.68,-10.89 1.866,-11.11 0.307,-0.37 6.947,-0.01 10.577,0.58 0.7,0.1 1.29,0.18 1.3,0.17 0.02,-0.03 0.4,-1 0.87,-2.173 1.08,-2.747 2.52,-5.72 4.37,-9.067 2.22,-4.013 2.51,-4.56 3.11,-5.933 1.35,-3.04 1.97,-5.587 2.27,-9.227 0.16,-2.013 0,-22.173 -0.34,-39.64 -0.1,-5.72 -0.2,-11.213 -0.2,-12.213 v -1.814 l -3.09,-0.546 C 98.83,19.353 86.87,17.607 78.923,16.793 60.097,14.887 46.35,16.447 35.657,21.727 c -3.947,1.96 -5.734,3.293 -7.374,5.506 -2.213,2.987 -3.493,6.254 -4.186,10.694 -0.334,2.133 -0.334,7.6 0.013,10.066 1.627,11.88 7.24,24.067 16.253,35.334 4.827,6.013 12.76,13.773 17.347,16.963 1.4,0.96 4.88,3.02 6.547,3.86 7.253,3.67 13.96,5.18 16.08,3.6 0.32,-0.22 0.733,-0.86 0.626,-0.96 -0.026,-0.01 -0.613,-0.25 -1.306,-0.53 -2.414,-0.95 -5.28,-2.92 -6.587,-4.53 -0.813,-0.99 -1.787,-2.697 -2.08,-3.643 -0.307,-0.974 -0.347,-2.2 -0.107,-3.014 0.227,-0.746 1.2,-1.706 2.04,-2 1,-0.36 3.867,-0.453 5,-0.16 1.227,0.307 2.867,1.134 3.76,1.894 1.867,1.6 3.52,4.24 4.374,7.053 0.546,1.79 0.693,2.93 0.64,5.04 -0.054,1.76 -0.107,2.16 -0.414,3.05 -0.613,1.76 -1.733,3.18 -3.24,4.06 -0.786,0.46 -2.586,1.05 -3.72,1.22 -1.36,0.22 -4.013,0.28 -6,0.15 z M 126.36,44.247 c 0.42,-0.134 0.8,-0.4 1.11,-0.76 0.85,-0.987 1.08,-1.667 1.39,-4.227 0.25,-2.12 1.13,-8.72 1.68,-12.707 0.12,-0.866 0.18,-1.6 0.14,-1.64 -0.02,-0.04 -1.54,-0.293 -3.37,-0.586 -1.83,-0.28 -3.93,-0.614 -4.69,-0.747 -0.75,-0.12 -1.4,-0.2 -1.44,-0.16 -0.04,0.053 0.2,4 0.53,8.8 0.44,6.28 0.67,8.88 0.81,9.307 0.47,1.333 1.36,2.413 2.28,2.733 0.68,0.24 0.82,0.24 1.56,-0.013 z"
         style="fill:#ffffff;fill-opacity:1;fill-rule:nonzero;stroke:none"
         transform="matrix(1.5754438,1.2157496e-7,-1.5612523e-7,-1.5743734,176.02667,712.05333)"
         clip-path="url(#clipPath33)"
         id="path38" />
      <path
         d="m 129.62,112.79 c -1.35,-0.46 -2.27,-1.06 -3.51,-2.28 -1.65,-1.64 -2.81,-3.8 -3.31,-6.21 -0.26,-1.31 -0.28,-4.373 -0.02,-5.587 0.66,-3.12 2.66,-5.76 5.13,-6.813 1.29,-0.533 3.04,-0.667 4.41,-0.307 2.62,0.68 5.18,3 6.47,5.854 0.84,1.893 1.19,3.563 1.19,5.743 0,2.14 -0.32,3.59 -1.19,5.34 -1.03,2.06 -2.64,3.58 -4.55,4.28 -1.24,0.45 -3.33,0.45 -4.62,-0.02 z"
         style="fill:#ffffff;fill-opacity:1;fill-rule:nonzero;stroke:none"
         transform="matrix(1.5754438,1.2157496e-7,-1.5612523e-7,-1.5743734,176.02667,712.05333)"
         clip-path="url(#clipPath34)"
         id="path39" />
      <path
         d="m 210.99,101.7 c 0,-0.08 -0.2,-0.15 -0.43,-0.15 -0.24,0 -2.01,-0.4 -3.93,-0.88 -6.81,-1.703 -9.45,-2.117 -13.64,-2.13 -3.93,-0.013 -7.25,0.48 -11,1.64 -0.96,0.29 -1.77,0.49 -1.81,0.44 -0.22,-0.24 -4.39,-10.707 -4.39,-11 0,-0.307 0.04,-0.333 0.44,-0.293 0.23,0.026 1.48,0.093 2.76,0.133 5.84,0.173 12.91,1.2 17.81,2.587 3.82,1.08 6.78,2.306 9.34,3.866 3.18,1.934 3.54,2.294 4.37,4.267 0.35,0.83 0.6,1.55 0.56,1.59 -0.04,0.04 -0.08,0.01 -0.08,-0.07 z"
         style="fill:#ffffff;fill-opacity:1;fill-rule:nonzero;stroke:none"
         transform="matrix(1.5754438,1.2157496e-7,-1.5612523e-7,-1.5743734,176.02667,712.05333)"
         clip-path="url(#clipPath35)"
         id="path40" />
      <path
         d="m 273.26,86.193 c -6.1,-0.533 -13.4,-5.693 -20.82,-14.68 -2.69,-3.28 -3.46,-4.36 -8.69,-12.253 -2.19,-3.307 -4.87,-6.24 -8.07,-8.813 -1.49,-1.2 -4.08,-3 -5.05,-3.494 -0.51,-0.266 -1.91,-0.626 -2.41,-0.626 -1.46,0 -1.72,1.32 -0.71,3.493 0.21,0.467 4.68,8.827 9.92,18.573 l 9.55,17.734 -5.5,0.04 c -4.26,0.026 -5.52,-0.014 -5.64,-0.134 -0.09,-0.093 -2.5,-4.253 -5.36,-9.24 -10.52,-18.4 -11.98,-20.586 -17.86,-26.64 -1.84,-1.893 -2.64,-2.546 -3.79,-3.08 -1.61,-0.746 -3.63,-0.946 -5.03,-0.52 -1.05,0.334 -1.93,1.214 -2.13,2.16 -0.2,0.934 -0.2,0.934 0.24,2.76 1.32,5.4 4.23,11.747 9.97,21.854 0.63,1.106 1.35,2.333 1.59,2.733 1.71,2.88 5.65,9.8 5.65,9.92 0,0.053 -1.82,0.08 -4.05,0.08 H 211 l -0.42,-0.76 c -1.1,-1.907 -4.34,-6.84 -8.03,-12.2 -0.89,-1.307 -2.25,-3.347 -3.01,-4.533 -2.35,-3.667 -6.22,-8.974 -7.9,-10.84 -0.2,-0.214 -0.64,-0.734 -0.98,-1.134 -1.2,-1.4 -4.68,-4.84 -6.27,-6.186 -5.64,-4.814 -11.59,-8.147 -15.07,-8.44 -3.24,-0.267 -4.7,2.053 -4.2,6.653 0.19,1.747 0.5,2.8 1.7,5.84 1.56,3.973 3.65,7.88 6.05,11.333 3.49,5.027 8.85,10.64 11.92,12.494 1.6,0.96 3.17,1.413 4.96,1.413 1.51,0 1.91,-0.16 1.91,-0.787 0,-0.386 -0.36,-0.626 -1.4,-0.92 -3.71,-1.04 -5.86,-2.96 -7.42,-6.666 -0.4,-0.947 -0.44,-1.214 -0.45,-2.267 0,-1.08 0.04,-1.24 0.33,-1.64 0.59,-0.8 1.22,-1.027 2.74,-1.027 1.22,0 1.42,0.04 2.48,0.467 4.65,1.92 7.16,5.067 8.22,10.333 0.4,1.974 0.47,2.694 0.3,3.734 -0.52,3.306 -2.98,5.026 -7.47,5.226 -5.47,0.24 -12.17,-2.213 -18.13,-6.653 -2.51,-1.867 -5.59,-4.613 -7.67,-6.84 -0.88,-0.933 -1.68,-1.8 -1.79,-1.907 -0.1,-0.106 -0.76,-0.853 -1.44,-1.68 -5.2,-6.2 -8.76,-13.386 -10.44,-21.04 -0.34,-1.6 -0.4,-2.093 -0.41,-4 0,-1.773 0.05,-2.373 0.27,-3.24 1.1,-4.306 4.26,-6.826 9.53,-7.613 1.36,-0.213 1.73,-0.213 2.88,-0.067 3.15,0.387 7.63,1.774 11.33,3.507 3.79,1.773 9.43,5.44 12.86,8.36 0.44,0.373 0.81,0.667 0.81,0.64 0.01,-0.013 -0.05,-0.6 -0.16,-1.293 -0.16,-1.04 -0.17,-1.614 -0.04,-3.227 0.17,-2.293 0.36,-3.16 1.01,-4.48 0.87,-1.773 2.55,-3.067 4.6,-3.56 2.03,-0.467 5.64,-0.173 8.02,0.68 2.33,0.84 5.01,2.52 7,4.387 1.38,1.293 1.21,1.333 1.52,-0.36 0.17,-1 0.69,-2.227 1.24,-2.867 0.54,-0.64 1.65,-1.32 2.74,-1.667 0.9,-0.28 1.24,-0.306 3.34,-0.293 2.08,0 2.46,0.04 3.64,0.36 6.26,1.68 12.84,6.253 18.77,13.027 l 0.48,0.546 -0.17,-1.04 c -0.43,-2.64 -0.35,-5.72 0.22,-7.96 0.92,-3.6 3.28,-5.293 7.12,-5.106 2.72,0.146 4.63,0.84 7.44,2.733 1.04,0.693 2.44,1.64 3.1,2.08 0.66,0.453 1.46,0.933 1.78,1.08 l 0.59,0.253 0.29,-0.373 c 0.31,-0.373 0.62,-1.333 0.8,-2.4 0.2,-1.187 0.95,-2.173 2.06,-2.733 3.22,-1.654 8.01,-0.747 13.62,2.56 3.68,2.16 7.68,5.693 10.67,9.426 1.48,1.84 8.92,13.427 8.92,13.88 0,0.854 -0.71,1.187 -2.43,1.174 -2.04,-0.027 -1.84,0.106 -3.5,-2.387 -0.82,-1.213 -1.99,-3.013 -2.64,-4.013 -2.22,-3.44 -4.2,-5.867 -5.59,-6.8 -0.43,-0.294 -1.25,-0.76 -1.81,-1.027 -0.84,-0.4 -1.18,-0.493 -1.86,-0.493 -0.73,0 -0.88,0.04 -1.2,0.373 -0.32,0.32 -0.37,0.467 -0.36,1.133 0.02,0.454 0.12,1.014 0.28,1.36 0.15,0.334 4.99,8.867 10.76,18.974 5.76,10.12 10.44,18.44 10.4,18.506 -0.04,0.067 -2.7,0.12 -6.24,0.12 h -6.17 l -0.72,-0.813 c -0.4,-0.453 -0.84,-0.973 -1,-1.16 l -0.28,-0.333 -0.52,0.413 c -0.75,0.6 -2.4,1.32 -3.68,1.613 -1.28,0.294 -3.92,0.427 -5.57,0.28 z m 5.62,-7.2 c 0.28,-0.346 0.31,-0.973 0.06,-1.68 -0.23,-0.64 -1.87,-4.013 -2.66,-5.453 -4.21,-7.707 -8.46,-14.507 -12.17,-19.467 -3.33,-4.453 -4.64,-5.786 -6.61,-6.786 -2.52,-1.28 -3.58,-0.934 -3.58,1.186 0.02,2.694 2.24,8.427 5.88,15.067 3.7,6.76 8.87,13 12.95,15.627 2.57,1.653 5.44,2.36 6.13,1.506 z"
         style="fill:#ffffff;fill-opacity:1;fill-rule:nonzero;stroke:none"
         transform="matrix(1.5754438,1.2157496e-7,-1.5612523e-7,-1.5743734,176.02667,712.05333)"
         clip-path="url(#clipPath36)"
         id="path41" />
      <path
         d="m 77.79,85.5 c -2.787,-0.28 -6.213,-1.76 -9.667,-4.173 -1.893,-1.32 -2.666,-1.974 -5,-4.174 C 58.43,72.727 55.03,68.54 50.137,61.193 46.55,55.793 44.817,51.7 43.91,46.5 c -0.373,-2.16 -0.373,-5.813 0.013,-7.64 0.494,-2.427 1.64,-4.093 3.347,-4.907 1.213,-0.573 2.253,-0.746 4.027,-0.653 2.946,0.147 4.626,0.84 8.866,3.653 3.094,2.067 3.787,2.427 4.08,2.187 0.307,-0.267 0.6,-0.987 0.827,-2.107 0.267,-1.28 0.453,-1.68 1.16,-2.413 0.867,-0.88 2.293,-1.387 4.147,-1.467 1.8,-0.066 3.026,0.12 5.08,0.787 2.68,0.88 5.906,2.587 8.533,4.533 2.733,2.014 6.093,5.254 8.013,7.72 1.494,1.92 8.457,12.72 8.457,13.107 0,0.44 -0.537,0.893 -1.23,1.053 -0.68,0.147 -2.947,0.014 -3.227,-0.213 -0.106,-0.08 -1.36,-1.893 -2.786,-4.027 -4.507,-6.746 -5.894,-8.32 -8.494,-9.573 -1,-0.48 -1.24,-0.547 -2.08,-0.547 -0.746,0 -1.013,0.054 -1.24,0.254 -0.4,0.36 -0.48,1.053 -0.24,1.946 0.16,0.547 3.294,6.027 10.814,18.947 5.826,10 10.563,18.227 10.533,18.28 -0.04,0.067 -2.853,0.107 -6.253,0.107 h -6.2 l -0.507,-0.56 c -0.28,-0.32 -0.72,-0.814 -0.987,-1.094 l -0.466,-0.52 -0.627,0.427 c -1.84,1.267 -3.6,1.747 -6.613,1.787 C 79.643,85.58 78.27,85.553 77.79,85.5 Z m 5.787,-6.933 c 0.346,-0.48 0.266,-1.574 -0.214,-3.014 -0.493,-1.52 -2.546,-5.626 -4.04,-8.093 -2.266,-3.76 -5.946,-9.2 -8.746,-12.92 -0.76,-1.013 -1.507,-2 -1.64,-2.2 -1.04,-1.4 -2.707,-3.32 -4.267,-4.92 -0.813,-0.84 -1.293,-1.213 -2.013,-1.547 -1.8,-0.866 -2.6,-0.96 -3.227,-0.426 -0.32,0.28 -0.373,0.426 -0.413,1.266 -0.067,1.147 0.106,2.094 0.706,3.96 1.787,5.52 6.44,13.974 10.507,19.094 4.493,5.666 9.12,9.026 12.52,9.08 0.507,0.013 0.667,-0.04 0.827,-0.28 z"
         style="fill:#ffffff;fill-opacity:1;fill-rule:nonzero;stroke:none"
         transform="matrix(1.5754438,1.2157496e-7,-1.5612523e-7,-1.5743734,176.02667,712.05333)"
         clip-path="url(#clipPath37)"
         id="path42" />
    </g>
  </g>
</svg>
